<?xml version="1.0" standalone="no"?>
<!DOCTYPE svg PUBLIC "-//W3C//DTD SVG 20010904//EN"
 "http://www.w3.org/TR/2001/REC-SVG-20010904/DTD/svg10.dtd">
<svg version="1.0" xmlns="http://www.w3.org/2000/svg"
 width="71.000000pt" height="71.000000pt" viewBox="0 0 71.000000 71.000000"
 preserveAspectRatio="xMidYMid meet">
<metadata>
Created by potrace 1.14, written by Peter Selinger 2001-2017
</metadata>
<g transform="translate(0.000000,71.000000) scale(0.100000,-0.100000)"
fill="#000000" stroke="none">
<path d="M307 699 c-10 -6 -21 -8 -24 -5 -9 8 -75 -29 -102 -58 -73 -78 -73
-245 1 -327 32 -36 88 -73 96 -64 4 4 1 10 -5 12 -7 3 -13 10 -13 16 0 6 11 1
24 -12 35 -33 74 -37 85 -9 5 13 7 26 4 31 -2 4 1 7 6 7 6 0 11 -8 11 -19 0
-30 23 -43 55 -31 15 6 30 8 35 5 4 -3 30 10 56 28 68 46 99 109 98 202 -1
138 -75 218 -214 228 l-25 2 -3 -202 c-1 -112 -6 -203 -10 -203 -4 0 -7 87 -7
193 1 105 -3 198 -8 205 -11 15 -36 15 -60 1z m-33 -24 c-4 -8 -10 -15 -15
-15 -5 0 -22 -26 -38 -57 -25 -50 -28 -68 -27 -135 1 -44 -2 -74 -7 -69 -16
16 -8 140 11 184 24 54 93 138 76 92z m274 -68 c23 -45 40 -107 26 -94 -4 4
-9 16 -11 27 -5 33 -45 111 -60 117 -7 3 -13 10 -13 16 0 19 37 -23 58 -66z
m37 -144 c-8 -65 -17 -96 -37 -132 -25 -45 -48 -71 -62 -71 -6 0 -3 5 7 11 29
17 69 108 75 171 2 32 8 58 13 58 4 0 6 -17 4 -37z m-358 -131 c12 -25 21 -48
19 -50 -4 -3 -56 83 -56 92 0 19 18 -1 37 -42z"/>
<path d="M675 561 c-6 -11 9 -23 19 -14 9 9 7 23 -3 23 -6 0 -12 -4 -16 -9z"/>
<path d="M0 451 c0 -5 7 -11 15 -15 9 -3 15 0 15 9 0 8 -7 15 -15 15 -8 0 -15
-4 -15 -9z"/>
<path d="M560 220 c0 -5 7 -10 15 -10 8 0 15 5 15 10 0 6 -7 10 -15 10 -8 0
-15 -4 -15 -10z"/>
<path d="M172 209 c2 -7 10 -15 17 -17 8 -3 12 1 9 9 -2 7 -10 15 -17 17 -8 3
-12 -1 -9 -9z"/>
<path d="M344 213 c4 -7 4 -13 -1 -13 -18 0 -39 -58 -38 -105 l1 -50 72 -3 72
-3 0 31 c0 18 4 29 10 25 6 -3 10 -15 10 -26 0 -10 5 -19 10 -19 6 0 10 6 10
14 0 9 8 12 25 8 15 -2 25 0 25 7 0 6 -9 11 -20 11 -10 0 -32 16 -47 35 -20
25 -36 35 -55 35 -19 0 -28 5 -28 15 0 13 4 14 20 5 21 -11 40 -6 40 11 0 6
-5 7 -10 4 -6 -3 -13 1 -16 9 -4 11 -11 13 -31 5 -18 -7 -30 -6 -41 3 -12 10
-14 10 -8 1z m22 -32 c-4 -5 0 -12 6 -14 7 -3 2 -6 -11 -6 -20 -1 -21 1 -11
14 14 16 25 21 16 6z"/>
</g>
</svg>
